# xmcd
#
# Track frame offsets: 
#        180
#        18929
#        38383
#        56015
#        80424
#        94176
#        110478
#        125509
#        140806
#        156473
#        172065
#        188815
#        206646
#        217900
#        235371
#        247931
#        265339
#        279914
#
# Disc length: 4026 seconds
#
# Revision: 0
# Processed by: cddbd v1.5.1PL0 Copyright (c) Steve Scherf et al.
# Submitted via: ExactAudioCopy v0.95a3
#
DISCID=000fb812
DTITLE=Various Artist - Чёрная Роза
DYEAR=1995
DGENRE=Chanson
TTITLE0=Братья Жемчужные - Чёрная Роза
TTITLE1=Аркадий Северный - Студентка
TTITLE2=Люба Успенская - Кабриолет
TTITLE3=Слава Медяник - Полукровка
TTITLE4=Михаил Гулько - Пиши, Мой Друг
TTITLE5=Владимир Асмолов - Я Иду В Кабак
TTITLE6=Николай Эрденко - ...И Льётся Песня
TTITLE7=Вилли Токарев - Стаканчики
TTITLE8=Братья Жемчужные - Шумит Метель
TTITLE9=Слава Медяник - Были Мы Романтики...
TTITLE10=Михаил Гулько - Ваше Благородие
TTITLE11=Аркадий Северный - Карие Глаза
TTITLE12=Братья Жемчужные - Утомлённое Солнце
TTITLE13=Николай Эрденко - Дорогой Длинною
TTITLE14=Михаил Гулько - Москва Златоглавая
TTITLE15=Слава Медяник - Пей, Моя Девочка
TTITLE16=Николай Эрденко - Эй, Ямщик, Гони-Ка К Яру
TTITLE17=Владимир Асмолов - Вот И Всё (That's All)
EXTD=
EXTT0=
EXTT1=
EXTT2=
EXTT3=
EXTT4=
EXTT5=
EXTT6=
EXTT7=
EXTT8=
EXTT9=
EXTT10=
EXTT11=
EXTT12=
EXTT13=
EXTT14=
EXTT15=
EXTT16=
EXTT17=
PLAYORDER=
